<?xml version="1.0" standalone="no"?>
<!DOCTYPE svg PUBLIC "-//W3C//DTD SVG 20010904//EN"
 "http://www.w3.org/TR/2001/REC-SVG-20010904/DTD/svg10.dtd">
<svg version="1.0" xmlns="http://www.w3.org/2000/svg"
 width="600.000000pt" height="600.000000pt" viewBox="0 0 600.000000 600.000000"
 preserveAspectRatio="xMidYMid meet">
<metadata>
Created by potrace 1.16, written by Peter Selinger 2001-2019
</metadata>
<g transform="translate(0.000000,600.000000) scale(1.000000,-1.000000)"
fill="#000000" stroke="none">
<path d="M199 584 c-2 -5 -6 -12 -8 -16 -2 -3 -5 -8 -6 -10 0 -2 -2 -6 -3 -9
-2 -4 -3 -8 -3 -9 0 -3 -1 -3 -5 1 -6 3 -13 5 -22 5 -9 0 -8 -3 -12 28 -1 7
-3 14 -4 14 0 0 1 -3 1 -7 1 -3 2 -10 2 -16 1 -5 2 -12 3 -14 1 -5 1 -5 -3 -5
-6 0 -17 -4 -22 -8 l-5 -4 -5 5 c-10 11 -24 21 -38 29 -5 2 -9 5 -10 5 -1 1 0
0 1 -1 1 -2 3 -3 4 -4 8 -2 32 -19 42 -30 l5 -5 -2 -3 c-4 -6 -7 -15 -7 -24 0
-6 0 -6 -3 -7 -1 0 -4 -1 -6 -1 -10 -3 -13 -3 -26 -5 -14 -2 -14 -2 -7 -2 10
0 22 2 33 4 8 2 10 2 10 -1 0 -3 5 -11 8 -14 4 -4 4 -4 -2 -10 -3 -3 -5 -6 -5
-6 0 -1 -1 -3 -3 -4 -4 -5 -11 -17 -11 -19 0 -1 -1 -3 -2 -4 -1 -1 -2 -4 -3
-5 l-1 -2 2 2 c3 2 17 23 19 27 0 1 3 4 5 8 3 3 6 6 6 6 1 1 5 0 13 -4 2 -1 5
-2 7 -3 4 -2 3 -3 -2 -3 -2 0 -4 0 -4 0 0 -1 4 -1 9 -1 5 0 10 0 12 0 2 0 4 0
4 1 1 0 3 1 6 1 2 1 5 2 7 2 1 1 3 2 4 2 1 0 2 1 2 1 0 1 2 3 5 4 2 2 4 4 4 4
0 5 3 4 14 -4 3 -2 7 -5 8 -6 6 -4 20 -15 23 -18 2 -2 4 -3 4 -2 0 2 -8 9 -19
17 -20 13 -25 18 -24 20 5 6 9 18 9 24 0 5 0 5 26 6 22 1 32 2 32 4 -1 1 -1 1
-2 1 0 0 -3 0 -5 0 -2 -1 -5 -1 -6 -1 -1 -1 -9 -1 -19 -1 -10 -1 -19 -1 -21
-2 -6 -1 -6 -1 -6 2 0 5 -5 11 -12 16 -6 5 -6 6 0 16 2 4 4 8 4 8 0 1 2 5 4 9
3 4 6 10 7 13 1 3 3 6 3 8 4 9 1 7 -4 -3z m-54 -43 c2 -1 2 -1 1 0 0 3 14 3
18 1 1 -1 4 -2 5 -3 14 -6 23 -14 25 -21 0 -5 0 -6 -2 -7 -1 -1 -1 -1 0 -1 3
0 2 -9 -2 -15 -1 -2 -2 -3 -2 -4 0 -2 -3 -5 -5 -5 -1 0 -2 -1 -2 -2 0 -3 -2
-5 -10 -11 -8 -7 -23 -8 -33 -4 -2 0 -5 2 -8 3 -17 6 -27 22 -24 38 1 2 1 4 1
5 1 4 5 13 7 13 0 0 1 1 1 1 0 7 25 17 30 12z"/>
<path d="M307 591 c-1 -3 -1 -3 -6 -2 -16 6 -22 -16 -6 -23 10 -4 11 -4 12 -7
2 -7 -7 -15 -13 -13 -2 0 -7 6 -7 8 0 3 -3 0 -4 -7 -2 -7 -2 -9 0 -9 2 0 3 2
3 6 0 3 2 4 5 1 4 -4 16 -1 19 6 3 7 -1 13 -9 16 -8 3 -10 5 -12 10 -2 8 4 13
12 10 5 -2 4 -2 3 -6 -4 -8 -2 -8 3 -1 2 3 3 7 3 9 1 4 -2 5 -3 2z"/>
<path d="M220 576 c-1 0 0 -1 2 -1 4 -1 6 -8 3 -8 -2 0 -2 -1 0 -3 0 -1 1 -3
1 -7 0 -3 0 -5 1 -5 1 0 1 3 1 6 0 6 0 7 3 9 8 5 7 8 -4 9 -4 1 -7 1 -7 0z
m13 -3 c0 -1 -1 -2 -2 -3 -1 -1 -2 -1 -2 1 -1 3 2 5 4 2z"/>
<path d="M252 574 c0 -2 0 -8 -1 -13 -1 -9 -1 -11 0 -13 1 -3 1 -3 2 2 0 3 0
9 1 14 1 8 1 13 -1 13 -1 0 -1 -1 -1 -3z"/>
<path d="M236 562 c-2 -2 -3 -9 -1 -11 1 -1 6 -1 6 0 -1 0 0 2 1 3 4 4 4 4 0
8 -3 4 -3 4 -6 0z m5 -2 c1 -1 -1 -5 -3 -5 -1 0 -1 3 0 5 2 1 3 1 3 0z"/>
<path d="M258 562 c-2 -3 -2 -8 -1 -10 4 -5 10 4 7 10 -1 3 -4 2 -6 0z m4 -6
c-1 -4 -3 -4 -3 0 0 1 0 3 1 3 1 2 2 -1 2 -3z"/>
<path d="M498 561 c0 -1 2 -1 4 -1 5 0 17 -5 28 -11 15 -9 18 -27 7 -42 -5 -7
-25 -19 -25 -15 0 1 0 3 -1 6 0 2 0 5 0 8 -1 4 -1 5 -7 4 -2 0 -4 0 -4 0 0 1
4 8 8 13 4 7 5 10 1 10 -4 0 -6 3 -5 11 1 6 0 14 -3 14 -2 0 0 -22 3 -25 4 -5
4 -5 -7 -19 -1 -1 -1 -2 0 -2 0 0 1 -1 1 -2 0 -2 1 -2 4 -2 l5 0 0 -8 c1 -9 0
-12 -4 -13 -4 0 -2 -2 4 -2 6 0 11 1 16 5 2 1 6 3 7 4 20 11 24 38 8 53 -3 3
-24 13 -27 14 -7 1 -13 1 -13 0z"/>
<path d="M317 560 c-3 -2 -2 -3 1 -2 3 0 4 0 7 -3 2 -1 6 -5 10 -7 14 -10 19
-16 25 -31 2 -5 4 -9 4 -11 1 -2 1 -23 -1 -28 -2 -7 2 -34 6 -43 1 -2 3 -8 3
-12 1 -5 3 -11 4 -12 2 -3 1 -10 -2 -20 -2 -5 -2 -8 -1 -12 l0 -6 -15 1 c-8 0
-22 0 -30 0 -9 0 -26 1 -37 1 l-20 2 0 2 c0 4 -2 4 -3 0 -1 -3 -17 -5 -19 -3
-2 1 3 6 5 6 0 0 4 1 7 2 8 3 18 3 24 -1 11 -6 10 8 -1 15 -3 2 -4 4 -5 7 -3
8 -3 9 6 16 13 9 14 10 9 16 -6 6 -5 11 5 20 16 14 15 13 15 19 0 5 -1 9 -5
12 -2 3 -3 5 0 7 5 6 13 22 14 28 1 3 2 8 3 11 2 5 2 7 0 7 -2 0 -9 8 -9 10 0
2 -2 4 -3 3 -1 -2 1 -10 3 -10 1 0 2 -1 3 -2 0 -1 1 -2 2 -2 3 0 3 -2 0 -9 -2
-3 -3 -7 -3 -10 0 -3 -1 -6 -8 -15 -8 -13 -9 -15 -5 -20 6 -7 5 -14 -2 -20 -3
-2 -7 -6 -8 -7 -1 -2 -4 -5 -5 -6 -5 -5 -5 -11 -1 -16 4 -5 4 -7 -5 -13 -14
-10 -15 -20 -2 -29 7 -5 7 -9 1 -8 -6 2 -13 2 -19 1 -11 -2 -13 -3 -18 -8 l-5
-5 -15 0 c-34 1 -40 1 -36 6 2 1 3 3 3 4 0 2 4 3 5 2 1 -1 1 -1 1 1 0 1 1 2 2
2 1 0 2 0 2 1 2 1 5 1 6 -1 2 -1 2 -1 1 1 -1 1 -2 2 -2 2 0 0 3 2 6 3 l5 2 2
-3 c2 -2 4 -3 2 0 -2 4 -33 35 -34 34 0 0 3 -4 7 -8 l8 -8 0 -7 c0 -4 0 -7 0
-7 -2 0 -21 36 -21 39 0 2 -1 2 -5 2 -4 0 -4 0 -4 3 1 4 -1 5 -2 1 -1 -3 -2
-3 -7 -3 l-6 0 4 -1 c6 -1 7 -1 5 -9 -1 -7 -1 -7 -8 -7 l-6 -1 2 3 c1 4 2 12
0 13 0 1 -1 -1 -1 -4 0 -3 -1 -6 -1 -8 -3 -5 -4 -8 -2 -6 2 1 13 2 14 1 0 -1
-2 -20 -3 -21 0 0 -2 0 -5 0 -3 0 -5 -1 -5 -1 0 -1 2 -1 5 -1 5 0 5 0 5 -3 0
-7 -2 -8 -11 -10 -7 0 -8 0 -6 4 2 2 3 6 1 6 -1 -1 -2 -3 -3 -6 -1 -2 -3 -4
-3 -4 -2 0 -2 1 0 4 1 3 2 6 2 9 0 2 0 7 0 9 1 4 1 5 -2 8 -2 4 -2 5 -1 6 4 6
1 14 -6 14 l-4 0 0 5 c0 8 -1 8 -2 1 l-1 -5 -6 -1 c-9 -1 -11 -3 -2 -2 l7 0
-1 -5 c0 -2 0 -6 -1 -9 l0 -4 -6 0 c-6 0 -5 -2 2 -2 4 0 4 -1 3 -8 l0 -6 -5 0
c-7 0 -9 -2 -2 -2 7 0 8 0 8 -5 1 -8 1 -8 -10 -8 -8 0 -9 0 -8 2 0 1 1 3 1 5
0 4 -1 3 -2 -1 -2 -5 -3 -6 -9 -5 -6 2 -6 3 -2 12 4 7 4 11 2 11 -1 0 -1 -1
-1 -1 1 -1 0 -4 -2 -6 -1 -3 -3 -7 -3 -10 -2 -5 -2 -6 -5 -6 -7 -1 -5 -2 4 -2
10 0 11 -1 10 -3 0 -2 -13 -3 -34 -3 -9 0 -17 -1 -19 -1 -1 -1 9 -1 30 0 38 1
53 0 74 -1 9 -1 19 -1 24 -1 5 -1 9 -1 10 -1 0 -1 1 -1 1 0 0 1 6 1 19 0 10
-1 22 -1 27 -1 11 0 13 -2 10 -11 -2 -6 -2 -10 0 -13 2 -2 2 -2 1 -3 -1 0 -2
-1 -2 -2 0 -3 -3 -6 -8 -9 -2 -1 -5 -4 -7 -7 -1 -2 -4 -7 -7 -10 -9 -15 -11
-22 -6 -22 3 0 12 -5 12 -6 0 -1 -2 -3 -11 -10 -4 -3 -8 -7 -9 -9 -2 -3 -4 -5
-4 -5 -1 0 -3 -1 -4 -1 -1 -1 -4 -2 -5 -2 -14 -4 -21 -17 -19 -39 0 -6 0 -17
1 -25 0 -7 0 -15 0 -17 1 -5 0 -7 -7 -14 -5 -5 -9 -13 -9 -18 0 -2 -1 -5 -2
-8 -7 -13 -6 -17 5 -21 2 -1 7 -3 11 -5 3 -1 8 -3 12 -4 3 0 8 -2 11 -3 2 -1
10 -3 16 -4 6 -1 12 -3 14 -3 3 -2 12 -3 29 -4 21 0 25 0 33 -5 14 -7 19 -6
29 7 6 8 7 7 4 -10 -1 -9 -9 -9 -148 -5 -12 0 -38 0 -57 -1 -20 -1 -48 -1 -62
-2 -27 0 -31 0 -31 -2 0 0 6 -1 12 -1 11 1 21 1 59 3 22 0 94 1 109 0 9 -1 39
-1 69 -1 l53 -1 7 -3 c4 -2 8 -4 8 -4 3 -10 47 -11 47 -2 0 3 -1 2 -5 -1 -5
-4 -18 -5 -25 -2 -2 1 -5 2 -6 3 -1 0 -5 2 -7 4 -3 2 -7 4 -9 4 -10 3 2 4 45
3 17 0 32 0 33 0 5 0 69 -2 74 -3 30 -2 33 -4 32 -10 0 -5 1 -6 7 -4 5 2 5 2
8 0 2 0 5 -1 8 -1 5 0 22 -6 22 -8 0 -1 -1 -3 -3 -6 -3 -5 -3 -6 1 -8 7 -5 11
-16 7 -21 -3 -4 -4 -10 -2 -13 2 -3 3 -3 3 1 -1 3 0 6 1 9 3 9 1 21 -6 25 -3
2 -2 4 0 8 3 4 2 7 -1 9 -11 5 -17 7 -22 8 -12 0 -15 0 -17 0 -2 -1 -2 -1 -2
1 0 1 -1 4 -2 5 -2 3 -1 3 12 4 14 0 37 1 43 2 7 1 0 2 -12 1 -16 -1 -52 -1
-53 0 -2 1 0 5 5 11 8 8 8 13 4 28 -1 7 -1 12 0 15 5 7 7 26 2 31 -2 4 -7 8
-9 8 -2 0 -8 8 -9 13 0 3 -2 7 -3 9 -2 2 -3 6 -4 8 -1 3 -2 7 -3 9 -2 2 -5 8
-8 13 -7 13 -21 23 -40 28 -4 1 -9 3 -11 4 -4 3 -15 6 -22 7 -12 2 -17 6 -15
13 1 6 1 16 -2 22 0 2 -2 7 -3 10 0 3 -3 9 -6 14 l-4 10 -1 14 c0 10 -1 16 -2
19 -2 4 -3 4 16 3 8 0 21 0 28 0 32 2 41 3 51 2 17 -2 44 -2 44 -1 0 1 -3 1
-9 1 -10 0 -12 0 -27 2 -17 2 -25 2 -35 1 -12 -1 -33 -2 -41 -2 -34 0 -33 -1
-27 22 l2 11 -2 6 c-2 3 -4 10 -5 14 0 5 -2 9 -2 11 -4 9 -6 27 -6 36 2 21 2
28 1 33 -6 18 -11 27 -21 36 -4 3 -9 8 -13 12 -6 7 -10 8 -16 6z m-136 -124
c3 -4 0 -10 -5 -11 l-4 0 1 6 c0 3 0 6 1 7 0 1 5 0 7 -2z m-43 -3 c2 0 3 -8 0
-10 0 -2 -1 -3 -1 -4 0 -1 -1 -2 -2 -2 -1 0 -3 0 -4 -1 l-2 0 0 7 c1 3 1 8 1
9 0 2 4 3 8 1z m51 -9 c5 -10 6 -12 7 -21 1 -4 1 -8 2 -9 0 -3 -7 -8 -12 -8
-4 0 -4 0 -3 2 2 3 3 16 1 18 -1 0 -1 0 -1 -2 1 -2 -5 -3 -12 -2 -6 1 -3 21 3
21 6 0 7 -3 7 -12 -1 -7 -1 -7 1 -5 1 1 1 4 1 11 -1 16 0 17 6 7z m-46 -13 c0
-2 0 -4 -1 -5 0 -1 -1 -3 -1 -4 0 -3 -4 -4 -9 -2 -5 1 -6 5 -4 11 1 3 1 3 12
4 1 0 2 -1 3 -4z m75 -11 c0 0 -2 -1 -4 -2 -2 -1 -5 -1 -6 -2 -1 0 -1 3 0 11
l0 4 5 -5 c3 -3 5 -6 5 -6z m-16 1 l3 -5 -2 -2 c-4 -3 -5 -1 -5 9 0 4 0 4 4
-2z m-18 -4 c0 -6 -3 -10 -8 -10 -9 -1 -14 1 -11 3 0 1 1 3 2 5 l1 4 7 0 c9 1
8 1 9 -2z m-42 0 c1 -1 -6 -11 -8 -12 -5 -1 -7 1 -7 7 l0 6 7 -1 c4 0 8 0 8 0z
m35 -13 c1 0 3 0 5 0 4 0 4 0 3 -1 -1 -1 -1 -1 1 -1 l3 1 -2 -3 -1 -3 -23 0
c-13 1 -25 1 -27 2 -2 0 -10 0 -19 0 -8 0 -15 0 -15 1 0 3 2 3 28 3 14 1 26 1
27 1 0 1 19 1 20 0z m90 -14 l0 -4 -4 1 c-3 0 -6 -1 -8 -1 l-4 -2 7 0 c10 -1
9 0 9 -8 1 -9 3 -8 3 1 l0 6 5 0 c5 1 7 2 7 3 0 1 -2 1 -5 1 -6 -1 -7 0 -7 4
l0 3 9 -1 c5 0 9 0 9 0 0 -1 -1 -3 -2 -7 -2 -4 -2 -7 -2 -13 1 -11 -2 -16 -7
-12 -6 4 -9 5 -11 4 -1 -2 -1 -2 1 -2 1 0 5 -1 8 -3 9 -5 12 -3 11 10 0 5 1
11 2 16 l1 7 8 0 c5 -1 24 -1 43 -2 41 0 37 2 38 -21 l0 -14 5 -10 c2 -5 5
-11 5 -14 1 -2 2 -6 3 -9 3 -5 4 -16 2 -23 -2 -9 6 -16 20 -18 5 0 18 -4 23
-6 1 -1 4 -2 8 -3 22 -9 32 -15 37 -24 2 -3 5 -9 7 -12 1 -3 4 -9 6 -13 1 -5
3 -9 3 -9 0 -1 1 -4 2 -7 3 -8 4 -9 12 -15 11 -9 13 -18 7 -34 -3 -8 -4 -12
-1 -22 3 -14 2 -17 -5 -24 -5 -6 -6 -8 -6 -10 l0 -3 -6 0 c-12 2 -40 3 -71 4
-17 0 -32 0 -34 1 -4 0 -42 0 -63 0 -8 -1 -9 0 -7 7 2 7 4 23 3 24 -1 2 -5 -2
-14 -12 -9 -12 -18 -15 -26 -8 -4 4 -11 5 -30 5 -17 0 -19 0 -26 3 -4 1 -11 3
-16 4 -5 1 -12 2 -16 4 -5 1 -13 3 -17 4 -9 3 -21 7 -26 10 -3 1 -3 5 1 13 2
4 3 10 3 13 1 5 5 11 12 17 5 5 7 9 5 13 -1 2 -2 22 -2 36 0 10 2 27 3 29 3 4
16 13 17 12 2 0 4 2 9 7 4 4 7 7 8 7 1 0 16 15 16 16 0 2 -5 7 -7 7 -8 0 -7
11 2 20 1 2 3 5 5 9 2 4 5 6 8 9 4 3 6 4 6 7 1 2 2 3 4 4 3 1 3 3 0 6 -2 2 -2
3 -2 8 1 2 1 7 1 9 l0 5 4 0 c3 0 7 1 11 1 l6 0 0 -4z"/>
<path d="M426 504 c0 0 0 -1 1 -1 2 -2 1 -4 -1 -7 -3 -2 -2 -3 2 -1 2 2 3 2 5
-1 3 -3 4 -2 1 2 -1 2 -1 2 1 3 4 2 4 3 0 3 -3 -1 -4 -1 -5 1 -2 2 -4 3 -4 1z"/>
<path d="M457 491 c0 0 1 -1 2 -2 1 -2 1 -2 0 -4 -2 -3 -1 -3 2 -2 2 1 2 1 6
-2 4 -5 5 -5 1 1 l-3 4 2 2 c3 3 2 4 -2 2 -3 -1 -3 -1 -5 0 -2 1 -3 2 -3 1z"/>
<path d="M430 470 c0 -2 0 -4 -2 -5 -1 -3 0 -4 2 -1 2 2 4 1 6 -2 3 -4 4 -3 1
1 l-2 4 2 1 c3 3 1 5 -2 3 -2 -1 -2 -1 -4 0 -2 1 -2 1 -1 -1z"/>
<path d="M488 458 c3 -3 3 -3 2 -6 -3 -5 -2 -7 0 -3 3 4 4 4 8 -1 4 -4 5 -3 1
2 -5 4 -5 5 -2 6 2 1 3 4 1 4 -1 0 -2 0 -2 -1 0 -2 -4 -1 -7 0 -3 3 -4 2 -1
-1z"/>
<path d="M114 428 c-1 -2 -2 -6 -3 -8 -2 -3 -3 -6 -3 -8 l0 -2 -7 3 c-3 1 -8
2 -9 2 -3 0 -2 0 2 -2 12 -3 13 -4 11 -11 -2 -4 -2 -5 -1 -5 1 0 6 11 6 14 0
1 1 4 3 8 3 5 4 11 2 12 0 1 -1 -1 -1 -3z"/>
<path d="M513 424 c-2 -1 -3 -1 -3 0 -2 2 -4 1 -3 -1 2 -1 2 -2 1 -4 -1 -2 -1
-3 0 -4 1 -1 1 -1 1 1 0 3 2 3 5 -1 4 -5 5 -3 1 1 l-2 4 2 2 c3 4 2 6 -2 2z"/>
<path d="M153 413 c0 -2 -2 -6 -5 -8 -2 -1 -2 -1 -1 -1 3 0 8 5 8 8 0 3 -2 4
-2 1z"/>
<path d="M514 393 c0 0 1 -1 1 -2 1 -1 1 -1 0 -3 -2 -3 -1 -5 1 -3 3 2 4 2 6
0 1 -1 2 -1 3 -1 0 1 -1 2 -2 3 -3 2 -3 3 0 4 2 0 3 3 1 3 -1 0 -3 -1 -4 -2
-2 -1 -2 -1 -3 0 -2 2 -3 2 -3 1z"/>
<path d="M85 381 c0 0 0 -1 1 0 1 0 1 1 1 1 0 1 0 1 -1 1 -1 0 -1 -1 -1 -2z"/>
<path d="M199 363 c-5 -6 -5 -6 1 -8 4 -1 4 -1 4 -4 -1 -3 0 -6 2 -5 0 1 1 2
1 3 0 1 0 4 1 6 0 3 1 6 0 6 0 2 -2 0 -2 -2 0 -2 -1 -2 -3 -2 -5 0 -5 0 -1 5
5 6 3 7 -3 1z"/>
<path d="M154 364 c-3 -3 -3 -5 0 -3 2 2 6 3 7 1 0 -1 -1 -2 -3 -4 -2 -2 -2
-2 0 -2 3 0 5 -3 3 -4 -1 -1 -2 -2 -3 -2 -1 0 -2 -1 -2 -1 0 -3 3 -2 6 0 2 3
3 5 0 7 -1 1 -1 2 0 2 2 2 1 5 -1 6 -2 3 -5 2 -7 0z"/>
<path d="M169 362 c-2 -1 -3 -4 -3 -4 0 -1 0 -1 0 -2 0 0 1 -1 3 -1 3 0 4 -1
4 -5 0 -1 0 -3 0 -3 2 -1 4 8 4 12 0 4 -2 5 -2 1 -1 -3 -4 -4 -5 -2 0 1 1 3 2
4 2 4 1 4 -3 0z"/>
<path d="M135 364 c-2 -1 -1 -4 2 -6 2 -2 3 -3 3 -5 0 -3 -4 -3 -8 0 -3 3 -5
2 -1 -2 3 -3 8 -4 10 -1 3 3 2 6 -2 8 -4 4 -3 5 2 5 3 -1 4 0 1 1 -2 1 -7 1
-7 0z"/>
<path d="M182 362 c-2 -2 -3 -4 0 -6 3 -4 9 0 7 5 -2 3 -4 4 -7 1z m6 -3 c0
-1 -1 -1 -2 -1 -1 0 -2 0 -2 1 0 1 1 1 2 1 1 0 2 0 2 -1z"/>
<path d="M224 359 c-3 -3 -3 -4 -1 -3 2 1 6 6 6 7 0 2 -3 0 -5 -4z"/>
<path d="M215 362 c-1 -1 -2 -14 -1 -14 1 0 3 7 3 11 0 4 -1 5 -2 3z"/>
<path d="M147 350 c0 -1 0 -2 1 -2 1 0 1 1 1 2 0 1 0 2 -1 2 -1 0 -1 -1 -1 -2z"/>
<path d="M187 345 c-2 -3 -1 -6 2 -7 4 0 6 3 3 6 -2 2 -3 3 -5 1z m5 -2 c1 -2
-2 -4 -3 -2 -1 1 -1 3 1 3 0 0 1 0 2 -1z"/>
<path d="M163 342 c-4 -5 -4 -6 -1 -6 3 1 5 -2 4 -4 -1 -1 -2 -2 -3 -2 -1 0
-2 0 -2 -1 0 -2 5 -1 6 1 3 2 2 6 -1 8 l-2 2 2 1 c3 1 5 0 5 -3 0 -3 3 -9 6
-9 3 -1 6 1 6 3 0 2 -6 4 -7 3 0 0 1 -1 2 -1 3 -1 3 -4 0 -4 -5 0 -6 9 -1 11
3 2 3 2 1 2 -1 0 -3 0 -4 -1 -1 -1 -3 0 -5 1 -2 1 -3 2 -3 2 0 0 -2 -2 -3 -3z"/>
<path d="M133 339 c4 -12 6 -13 9 -8 3 4 6 5 5 1 0 -3 0 -4 3 -4 2 0 3 0 2 2
0 1 1 3 2 5 2 3 3 6 1 6 0 0 -1 -1 -2 -3 -2 -4 -4 -4 -5 0 -1 5 -1 4 -5 -1 -3
-6 -4 -6 -6 1 -1 3 -2 5 -3 5 -2 0 -2 0 -1 -4z"/>
<path d="M200 341 c-3 -2 -3 -3 1 -6 l2 -3 -2 -4 c-2 -5 -2 -7 1 -5 1 1 6 13
6 15 0 4 -4 6 -8 3z m5 -1 c1 -1 -1 -5 -2 -5 -3 1 -4 4 -2 5 2 1 4 1 4 0z"/>
<path d="M216 340 c0 0 0 -2 -1 -4 -1 -4 -1 -4 0 -3 2 2 4 7 3 7 -1 1 -2 1 -2
0z"/>
<path d="M498 313 c-1 0 -5 -2 -8 -4 l-6 -4 -5 1 c-13 3 -13 3 -8 -7 3 -8 4
-8 9 -2 l4 4 10 -1 c6 -1 12 -2 15 -2 2 0 5 -1 7 -2 4 -1 5 -1 6 1 1 0 4 1 7
1 21 0 6 14 -17 15 -6 1 -13 1 -14 0z m20 -4 c-1 -1 -2 -4 -2 -6 0 -4 1 -3
-15 -1 -7 0 -13 1 -13 1 -1 0 2 3 4 3 0 0 1 1 1 1 1 2 7 4 17 4 l9 0 -1 -2z
m14 -2 c5 -4 4 -5 -5 -6 -8 -1 -10 2 -6 7 2 2 5 2 11 -1z m-57 -3 c2 -1 4 -2
4 -3 1 -1 -3 -6 -3 -5 -1 2 -5 9 -5 9 1 0 2 -1 4 -1z"/>
<path d="M522 306 c0 -1 1 -2 2 -2 1 0 2 1 2 2 0 0 -1 1 -2 1 -1 0 -2 -1 -2
-1z"/>
<path d="M532 286 c-1 0 -4 -2 -6 -3 l-5 -3 -5 3 c-5 4 -6 4 -11 0 -4 -5 -4
-5 -9 -1 l-4 3 -4 -4 -4 -3 -6 4 c-8 4 -9 3 -12 -1 -2 -4 -2 -4 -9 1 -8 4 -17
0 -15 -7 1 -2 2 -1 5 3 2 6 11 3 15 -4 2 -2 4 -1 6 3 2 6 5 6 13 -1 3 -3 5 -3
7 2 3 4 5 4 9 0 4 -4 5 -4 9 1 5 5 8 5 13 -2 l3 -3 5 4 c5 6 6 6 11 2 6 -4 6
-2 1 3 -5 4 -5 4 -7 3z"/>
<path d="M513 267 c-2 -2 -3 -4 -3 -5 -1 -4 -4 -3 -11 2 -9 6 -9 6 -9 1 -1 -5
-3 -5 -9 -1 -9 5 -11 5 -11 0 0 -5 2 -7 3 -2 0 4 1 4 6 1 2 -1 5 -3 7 -4 3 -3
5 -2 5 2 0 6 5 5 13 -4 3 -3 4 -3 6 0 1 2 3 4 4 6 3 5 9 2 17 -7 3 -3 4 -3 7
4 3 6 3 6 7 2 1 -2 3 -3 4 -3 1 0 -8 9 -10 9 0 0 -1 -1 -1 -1 0 -9 -4 -10 -14
-3 -9 7 -8 7 -11 3z"/>
<path d="M64 112 c-6 -1 -7 -1 -5 -5 1 -3 1 -15 0 -16 -3 -2 2 -3 13 -1 10 1
9 2 -1 2 l-8 0 0 4 c0 5 5 6 6 1 1 -2 1 -2 1 2 1 5 1 5 -3 4 -4 -1 -5 -1 -5 3
-1 4 1 5 11 5 3 0 6 0 6 1 0 1 -8 1 -15 0z"/>
<path d="M145 110 c-1 -1 -2 -2 -3 -2 -2 1 -9 0 -9 -1 0 -1 1 -1 3 0 3 0 7 -1
7 -4 0 -2 -2 -4 -5 -4 -5 0 -7 -5 -3 -9 4 -3 9 -2 9 2 0 4 2 12 3 12 1 0 1 1
0 1 0 1 -1 3 -1 4 -1 2 -1 2 -1 1z m-3 -16 c0 -3 -1 -4 -4 -3 -2 1 -3 4 0 5 2
1 3 1 4 -2z"/>
<path d="M121 101 c-3 -2 -2 -3 1 -3 2 0 2 -1 -2 -2 -6 -3 -5 -7 2 -8 5 -1 6
1 5 11 0 2 -4 3 -6 2z m3 -9 c0 -1 -1 -1 -2 -1 -1 0 -2 0 -2 1 0 1 1 1 2 1 1
0 2 0 2 -1z"/>
<path d="M165 101 c0 -1 0 -2 1 -2 0 0 1 -2 1 -4 0 -3 1 -5 2 -6 1 -1 1 -1 1
2 0 3 1 3 5 5 3 2 4 2 3 3 -1 1 -2 1 -4 0 -3 -1 -3 -1 -5 1 -1 2 -3 3 -4 1z"/>
<path d="M103 100 c-3 -4 1 -13 5 -12 5 2 8 12 3 12 -1 0 -1 -1 0 -2 0 -2 -4
-9 -5 -7 0 0 -1 2 -1 5 0 4 -1 5 -2 4z"/>
<path d="M152 100 c-3 -4 -2 -14 1 -14 2 0 7 7 7 9 0 4 -5 8 -8 5z m5 -5 c0
-1 -3 -5 -4 -5 -1 0 -1 3 0 5 1 2 4 3 4 0z"/>
<path d="M89 98 c-3 -3 -2 -7 1 -9 3 -2 7 -3 9 -1 0 1 0 1 -1 1 -1 -1 -3 0 -5
1 -5 2 -3 9 3 8 2 -1 2 -1 1 0 -3 3 -6 2 -8 0z"/>
<path d="M179 92 c-1 -3 0 -4 2 -2 1 1 1 2 0 3 -1 1 -2 1 -2 -1z"/>
<path d="M137 73 c0 0 1 -1 2 -2 l2 -1 -2 -2 c-3 -1 -4 -2 -1 -4 0 -1 1 -2 1
-3 0 0 -1 -1 -1 -2 -3 0 -2 -2 0 -2 3 -1 4 1 4 6 0 2 1 4 1 5 1 2 1 3 -1 4 -2
2 -5 3 -5 1z"/>
<path d="M125 71 c0 -1 -1 -4 -2 -5 -2 -3 -1 -5 2 -3 3 1 3 1 3 -2 0 -4 2 -6
2 -2 0 1 0 3 1 4 1 4 0 6 -2 5 -2 0 -2 0 -2 2 1 4 -1 4 -2 1z"/>
<path d="M64 69 c-3 -2 -4 -3 -1 -4 2 -1 2 -2 2 -7 0 -3 0 -5 1 -5 1 0 1 3 1
7 0 5 0 7 2 8 5 3 0 4 -5 1z"/>
<path d="M390 70 c0 -1 1 -1 3 -2 3 0 4 -2 7 -6 6 -9 15 -15 26 -15 5 0 2 2
-8 5 -4 1 -9 6 -15 12 -4 5 -13 9 -13 6z"/>
<path d="M79 68 c-4 -4 -3 -8 0 -12 l4 -4 1 4 c2 4 2 5 1 7 -2 1 -2 1 -3 0 0
-3 -3 -2 -3 0 0 1 1 3 3 4 1 0 2 2 2 2 0 2 -4 1 -5 -1z"/>
<path d="M46 67 c0 0 0 -2 1 -3 2 -4 1 -7 -1 -8 -5 0 -5 -1 -4 -3 4 -4 8 0 8
7 0 4 0 5 2 6 2 1 2 1 1 2 -2 2 -6 1 -7 -1z"/>
<path d="M495 60 c-3 -3 -8 -6 -11 -9 -3 -2 -7 -5 -9 -6 -4 -4 -9 -5 -15 -5
-3 1 -7 1 -8 1 -1 0 -5 2 -8 4 -7 4 -9 3 -4 -1 6 -7 8 -7 21 -7 l11 0 7 5 c4
2 11 8 15 12 l7 7 3 -2 c1 -2 4 -6 6 -9 5 -8 9 -9 21 -6 l7 1 3 -2 c1 -2 5 -4
7 -5 6 -2 7 -3 4 -9 -2 -4 -2 -7 -2 -9 1 -7 3 -7 4 2 1 3 2 7 3 8 3 5 -1 11
-9 13 -2 0 -4 1 -4 2 -4 6 -5 6 -9 3 -4 -2 -5 -2 -14 -1 -4 0 -5 1 -7 3 -14
18 -13 17 -19 10z"/>
</g>
</svg>
